Coordinates
version=1
nRows=6
nColumns=63
inDegrees=yes

Units are S.I. units (second, meters, Newtons, ...)
If the header above contains a line with 'inDegrees', this indicates whether rotational values are in degrees (yes) or radians (no).

endheader
time	pelvis_tilt	pelvis_list	pelvis_rotation	pelvis_tx	pelvis_ty	pelvis_tz	hip_flexion_r	hip_adduction_r	hip_rotation_r	knee_angle_r	knee_angle_r_beta	ankle_angle_r	subtalar_angle_r	mtp_angle_r	hip_flexion_l	hip_adduction_l	hip_rotation_l	knee_angle_l	knee_angle_l_beta	ankle_angle_l	subtalar_angle_l	mtp_angle_l	L5_S1_Flex_Ext	L5_S1_Lat_Bending	L5_S1_axial_rotation	L4_L5_Flex_Ext	L4_L5_Lat_Bending	L4_L5_axial_rotation	L3_L4_Flex_Ext	L3_L4_Lat_Bending	L3_L4_axial_rotation	L2_L3_Flex_Ext	L2_L3_Lat_Bending	L2_L3_axial_rotation	L1_L2_Flex_Ext	L1_L2_Lat_Bending	L1_L2_axial_rotation	L1_T12_Flex_Ext	L1_T12_Lat_Bending	L1_T12_axial_rotation	Abs_r3	Abs_r2	Abs_r1	Abs_t1	Abs_t2	neck_flexion	neck_bending	neck_rotation	arm_flex_r	arm_add_r	arm_rot_r	elbow_flex_r	pro_sup_r	wrist_flex_r	wrist_dev_r	arm_flex_l	arm_add_l	arm_rot_l	elbow_flex_l	pro_sup_l	wrist_flex_l	wrist_dev_l
0.000000	-1.587204	-3.978389	101.540186	0.242228	0.871206	0.722843	2.100670	-1.966570	-15.241564	13.562987	0.236719	36.052031	16.939321	0.000000	-1.486977	0.756148	15.654688	1.246648	0.021758	28.953772	-7.803439	0.000000	0.131944	0.142906	-1.412027	0.245033	0.190065	-1.500279	0.216771	0.347462	-1.500279	0.150799	0.347462	-1.235524	0.122523	0.291414	-1.147272	0.075393	0.221362	-1.059020	0.942464	1.616582	-7.853271	0.000000	0.000000	22.408044	0.007525	-5.439811	11.240708	-6.946436	42.904400	48.363894	39.247324	-2.893385	11.485005	9.484031	-3.218620	33.585990	47.674720	63.381604	-5.089711	-2.797580
0.022222	-1.387423	-4.201242	101.143332	0.242546	0.870650	0.724674	2.237598	-1.745209	-14.897822	12.809510	0.223568	36.243082	16.862696	0.000000	-1.070172	0.627674	15.046918	1.316133	0.022971	29.214853	-7.492033	0.000000	0.141930	0.171888	-1.347228	0.263578	0.228612	-1.431429	0.233176	0.417930	-1.431429	0.162211	0.417930	-1.178824	0.131796	0.350515	-1.094623	0.081099	0.266255	-1.010421	1.013790	1.944436	-7.492876	0.000000	0.000000	22.706804	0.049724	-5.022358	10.741081	-6.240642	39.713516	48.205521	41.447129	-2.484082	9.985633	9.776569	-2.977964	33.620604	47.578332	63.498803	-4.834178	-1.689697
0.044444	-1.229006	-4.382750	100.764643	0.242850	0.870238	0.726131	2.363680	-1.569364	-14.561105	12.209905	0.213103	36.423435	16.796859	0.000000	-0.739321	0.528076	14.455183	1.368513	0.023885	29.433228	-7.183116	0.000000	0.148877	0.195486	-1.285002	0.276479	0.259997	-1.365315	0.244590	0.475305	-1.365315	0.170151	0.475305	-1.124377	0.138247	0.398635	-1.044064	0.085068	0.302808	-0.963751	1.063413	2.211379	-7.146795	0.000000	0.000000	22.952722	0.054890	-4.727031	10.316940	-5.676476	37.037151	48.109669	43.460806	-2.169251	8.664405	10.018382	-2.773372	33.637225	47.537348	63.750315	-4.637173	-0.884686
0.066667	-1.108209	-4.526180	100.403457	0.243138	0.869957	0.727246	2.479810	-1.435003	-14.231000	11.751761	0.205107	36.594129	16.740771	0.000000	-0.487327	0.454702	13.881268	1.405237	0.024526	29.612239	-6.879370	0.000000	0.153085	0.214182	-1.225269	0.284293	0.284862	-1.301848	0.251503	0.520762	-1.301848	0.174960	0.520762	-1.072110	0.142154	0.436760	-0.995531	0.087473	0.331768	-0.918952	1.093468	2.422869	-6.814577	0.000000	0.000000	23.149475	0.027458	-4.541396	9.961111	-5.241378	34.834803	48.069860	45.288358	-1.937433	7.516043	10.213512	-2.602016	33.637972	47.545553	64.116705	-4.492811	-0.351840
0.088889	-1.021292	-4.634800	100.059112	0.243412	0.869793	0.728050	2.586878	-1.338091	-13.907096	11.422664	0.199363	36.756203	16.693394	0.000000	-0.307090	0.404901	13.326952	1.427752	0.024919	29.755226	-6.583475	0.000000	0.154851	0.228458	-1.167947	0.287574	0.303849	-1.240944	0.254405	0.555473	-1.240944	0.176979	0.555473	-1.021954	0.143795	0.465872	-0.948957	0.088482	0.353882	-0.875960	1.106086	2.584363	-6.495771	0.000000	0.000000	23.300738	-0.028136	-4.453022	9.666419	-4.922794	33.065972	48.079613	46.929790	-1.777166	6.535269	10.365998	-2.461068	33.624963	47.596735	64.578536	-4.395211	-0.060452
0.111111	-0.964512	-4.711875	99.730945	0.243671	0.869732	0.728575	2.685776	-1.274594	-13.588981	11.210202	0.195655	36.910694	16.653687	0.000000	-0.191513	0.376022	12.794019	1.437504	0.025089	29.865531	-6.298111	0.000000	0.154475	0.238797	-1.112956	0.286876	0.317600	-1.182515	0.253788	0.580611	-1.182515	0.176550	0.580611	-0.973836	0.143446	0.486955	-0.904276	0.088267	0.369897	-0.834717	1.103402	2.701321	-6.189926	0.000000	0.000000	23.410186	-0.107455	-4.449476	9.425687	-4.708167	31.690158	48.132451	48.385106	-1.676991	5.716805	10.479881	-2.347700	33.600317	47.684680	65.116373	-4.338488	0.020183
